<svg xmlns="http://www.w3.org/2000/svg" xmlns:xlink="http://www.w3.org/1999/xlink" width="800" height="600" viewBox="0 0 800 600"><defs><clipPath id="b"><rect width="800" height="600"/></clipPath></defs><g id="a" clip-path="url(#b)"><g transform="translate(181 81)" fill="none" stroke="#000" stroke-width="1"><circle cx="219.5" cy="219.5" r="219.5" stroke="none"/><circle cx="219.5" cy="219.5" r="219" fill="none"/></g><line y2="439" transform="translate(400.5 81.5)" fill="none" stroke="#000" stroke-width="1"/><line x2="439" transform="translate(181.5 300.5)" fill="none" stroke="#000" stroke-width="1"/><line x2="370" y2="234" transform="translate(214.5 182.5)" fill="none" stroke="#000" stroke-width="1"/><line x1="206" y1="383" transform="translate(297.5 108.5)" fill="none" stroke="#000" stroke-width="1"/><line x2="370" y2="234" transform="matrix(0.07, 0.998, -0.998, 0.07, 503.809, 107.254)" fill="none" stroke="#000" stroke-width="1"/><line y1="234.605" x2="368.779" transform="translate(215.721 182.5)" fill="none" stroke="#000" stroke-width="1"/><text transform="translate(383 60)" font-size="30" font-family="TimesNewRomanPSMT, Times New Roman"><tspan x="0" y="0">90°</tspan></text><text transform="translate(495 84)" font-size="30" font-family="TimesNewRomanPSMT, Times New Roman"><tspan x="0" y="0">60°</tspan></text><text transform="translate(589 173)" font-size="30" font-family="TimesNewRomanPSMT, Times New Roman"><tspan x="0" y="0">30°</tspan></text><text transform="translate(631 311)" font-size="30" font-family="TimesNewRomanPSMT, Times New Roman"><tspan x="0" y="0">0°</tspan></text><text transform="translate(265 84)" font-size="30" font-family="TimesNewRomanPSMT, Times New Roman"><tspan x="0" y="0">120°</tspan></text><text transform="translate(159 173)" font-size="30" font-family="TimesNewRomanPSMT, Times New Roman"><tspan x="0" y="0">150°</tspan></text><text transform="translate(114 311)" font-size="30" font-family="TimesNewRomanPSMT, Times New Roman"><tspan x="0" y="0">180°</tspan></text><text transform="translate(147 444)" font-size="30" font-family="TimesNewRomanPSMT, Times New Roman"><tspan x="0" y="0">210°</tspan></text><text transform="translate(252 531)" font-size="30" font-family="TimesNewRomanPSMT, Times New Roman"><tspan x="0" y="0">240°</tspan></text><text transform="translate(376 564)" font-size="30" font-family="TimesNewRomanPSMT, Times New Roman"><tspan x="0" y="0">270°</tspan></text><text transform="translate(495 535)" font-size="30" font-family="TimesNewRomanPSMT, Times New Roman"><tspan x="0" y="0">300°</tspan></text><text transform="translate(593 439)" font-size="30" font-family="TimesNewRomanPSMT, Times New Roman"><tspan x="0" y="0">330°</tspan></text><text transform="translate(668 311)" fill="#4d4d4d" font-size="30" font-family="TimesNewRomanPSMT, Times New Roman"><tspan x="0" y="0">2π</tspan></text><text transform="translate(638 152)" fill="#4d4d4d" font-size="30" font-family="TimesNewRomanPSMT, Times New Roman"><tspan x="0" y="0">π / 6</tspan></text><text transform="translate(537 54)" fill="#4d4d4d" font-size="30" font-family="TimesNewRomanPSMT, Times New Roman"><tspan x="0" y="0" xml:space="preserve"> π / 3</tspan></text><text transform="translate(370 27)" fill="#4d4d4d" font-size="30" font-family="TimesNewRomanPSMT, Times New Roman"><tspan x="0" y="0" xml:space="preserve"> π / 2</tspan></text><text transform="translate(188 54)" fill="#4d4d4d" font-size="30" font-family="TimesNewRomanPSMT, Times New Roman"><tspan x="0" y="0" xml:space="preserve"> 2π / 3</tspan></text><text transform="translate(67 157)" fill="#4d4d4d" font-size="30" font-family="TimesNewRomanPSMT, Times New Roman"><tspan x="0" y="0" xml:space="preserve"> 5π / 6</tspan></text><text transform="translate(65 311)" fill="#4d4d4d" font-size="30" font-family="TimesNewRomanPSMT, Times New Roman"><tspan x="0" y="0" xml:space="preserve"> π </tspan></text><text transform="translate(57 444)" fill="#4d4d4d" font-size="30" font-family="TimesNewRomanPSMT, Times New Roman"><tspan x="0" y="0">7π / 6 </tspan></text><text transform="translate(171 552)" fill="#4d4d4d" font-size="30" font-family="TimesNewRomanPSMT, Times New Roman"><tspan x="0" y="0">4π / 3 </tspan></text><text transform="translate(362 594)" fill="#4d4d4d" font-size="30" font-family="TimesNewRomanPSMT, Times New Roman"><tspan x="0" y="0">3π / 2 </tspan></text><text transform="translate(537 568)" fill="#4d4d4d" font-size="30" font-family="TimesNewRomanPSMT, Times New Roman"><tspan x="0" y="0">10π / 6 </tspan></text><text transform="translate(664 452)" fill="#4d4d4d" font-size="30" font-family="TimesNewRomanPSMT, Times New Roman"><tspan x="0" y="0">11π / 6 </tspan></text></g></svg>